<?xml version="1.0" encoding="UTF-8" standalone="no"?>
<svg
   xmlns:dc="http://purl.org/dc/elements/1.1/"
   xmlns:cc="http://creativecommons.org/ns#"
   xmlns:rdf="http://www.w3.org/1999/02/22-rdf-syntax-ns#"
   xmlns:svg="http://www.w3.org/2000/svg"
   xmlns="http://www.w3.org/2000/svg"
   xmlns:sodipodi="http://sodipodi.sourceforge.net/DTD/sodipodi-0.dtd"
   xmlns:inkscape="http://www.inkscape.org/namespaces/inkscape"
   version="1.1"
   x="0px"
   y="0px"
   viewBox="0 0 42.099998 76.5"
   xml:space="preserve"
   id="svg4894"
   sodipodi:docname="corn.svg"
   width="42.099998"
   height="76.5"
   inkscape:version="0.92.4 (5da689c313, 2019-01-14)"><metadata
     id="metadata4900"><rdf:RDF><cc:Work
         rdf:about=""><dc:format>image/svg+xml</dc:format><dc:type
           rdf:resource="http://purl.org/dc/dcmitype/StillImage" /></cc:Work></rdf:RDF></metadata><defs
     id="defs4898" /><sodipodi:namedview
     pagecolor="#ffffff"
     bordercolor="#666666"
     borderopacity="1"
     objecttolerance="10"
     gridtolerance="10"
     guidetolerance="10"
     inkscape:pageopacity="0"
     inkscape:pageshadow="2"
     inkscape:window-width="1920"
     inkscape:window-height="1015"
     id="namedview4896"
     showgrid="false"
     inkscape:zoom="6.464"
     inkscape:cx="21.045297"
     inkscape:cy="25.2"
     inkscape:window-x="0"
     inkscape:window-y="0"
     inkscape:window-maximized="1"
     inkscape:current-layer="svg4894" /><style
     type="text/css"
     id="style4886">
	.st0{fill:none;stroke:#000000;stroke-width:2;stroke-linecap:round;stroke-linejoin:round;stroke-miterlimit:10;}
</style><path
     d="m 18.2,76.1 c 0.9,0.3 1.8,0.4 2.7,0.4 0.9,0 1.8,-0.1 2.7,-0.4 0,0 0,0 0,0 0,0 0,0 0.1,0 0.1,0 0.2,-0.1 0.3,-0.1 3.3,-1.2 8,-4.2 12.6,-12.2 4.6,-7.9 5.5,-17.7 5.5,-24.6 0,-7.4 -1.1,-12.8 -1.2,-13.1 -0.1,-0.3 -0.3,-0.6 -0.6,-0.7 -0.3,-0.1 -0.6,-0.1 -0.9,0 -0.2,0.1 -2.2,1.2 -5,3.2 l -1,-17.3 C 33,5 27.7,0 21.4,0 15,0 9.8,5 9.4,11.3 L 8,28.8 C 5,26.6 2.8,25.4 2.7,25.4 2.4,25.2 2.1,25.2 1.8,25.4 1.5,25.5 1.3,25.8 1.2,26.1 1.2,26.3 0,31.8 0,39.2 0,46 0.9,55.9 5.5,63.8 c 5,8.4 9.7,11.3 12.7,12.3 z M 35,62.8 c -1.7,2.9 -3.4,5.1 -5,6.7 0.9,-3.2 1.2,-8.3 -1.5,-16.1 -1.4,-4 -3.6,-7.7 -6.1,-11 C 28.5,35 36.3,29.8 39.2,28 40.1,33 42.1,50.5 35,62.8 Z M 17.1,36.5 c -1.1,-1.1 -2.2,-2.1 -3.2,-3 h 3.2 z m 2,-3 h 4.8 v 4.2 c -0.9,1 -1.9,2 -2.8,3.1 -0.7,-0.8 -1.3,-1.6 -2,-2.3 z m -7.7,-22 c 0.1,-0.9 0.3,-1.8 0.5,-2.7 H 17 V 13 h -5.8 z m 14.5,3.6 h 5.8 l 0.2,4.1 h -6.1 v -4.1 z m -2,4.1 h -4.8 v -4.1 h 4.8 z m 8.2,2 0.2,4.1 h -6.4 v -4.1 z m -0.6,-9.7 0.1,1.6 H 25.9 V 8.9 H 31 c 0.3,0.8 0.5,1.7 0.5,2.6 z m -7.6,1.6 H 19.1 V 8.9 h 4.8 z m -6.8,2 v 4.1 h -6.3 l 0.3,-4.1 z m -6.4,6.1 h 6.4 v 4.1 h -6.8 z m 8.4,0 h 4.8 v 4.1 h -4.8 z m 4.8,6.2 v 4.1 h -4.8 v -4.1 z m 2,6.1 h 2.5 c -0.8,0.7 -1.6,1.4 -2.5,2.2 z m 4.9,-2 h -4.9 v -4.1 h 6.5 l 0.2,2.7 c 0,0 0,0 0,0 -0.6,0.4 -1.2,0.9 -1.8,1.4 z M 30,6.9 H 25.9 V 3.2 C 27.6,4 29,5.3 30,6.9 Z M 23.9,2.4 c 0,0 0,0 0,0 V 6.8 H 19.1 V 2.4 c 0,0 0,0 0,0 0.8,-0.2 1.6,-0.3 2.4,-0.3 0.8,0 1.6,0.1 2.4,0.3 z M 17.1,3.1 V 6.8 H 12.9 C 14,5.2 15.4,4 17.1,3.1 Z m -6.9,24.3 c 0,0 0,0 0,0 h 6.9 v 4.1 h -5.6 c 0,0 0,0 0,0 C 11,31.1 10.5,30.7 10,30.3 Z M 3,28 c 4.3,2.7 19,12.6 23.6,26.1 2.9,8.6 2.1,13.5 1,16.2 -0.7,1.6 -2,2.9 -3.6,3.6 -0.2,0.1 -0.3,0.1 -0.5,0.2 -0.1,0 -0.2,0.1 -0.3,0.1 -1.4,0.5 -2.9,0.5 -4.3,0 C 16.2,73.3 11.9,70.6 7.4,62.8 0.2,50.5 2.2,33 3,28 Z"
     id="path4888"
     inkscape:connector-curvature="0" /></svg>