<?xml version="1.0" encoding="UTF-8" standalone="no"?>
<svg
   xmlns:dc="http://purl.org/dc/elements/1.1/"
   xmlns:cc="http://creativecommons.org/ns#"
   xmlns:rdf="http://www.w3.org/1999/02/22-rdf-syntax-ns#"
   xmlns:svg="http://www.w3.org/2000/svg"
   xmlns="http://www.w3.org/2000/svg"
   xmlns:sodipodi="http://sodipodi.sourceforge.net/DTD/sodipodi-0.dtd"
   xmlns:inkscape="http://www.inkscape.org/namespaces/inkscape"
   enable-background="new 0 0 64 64"
   height="36"
   id="Layer_1"
   version="1.1"
   viewBox="0 0 44 36"
   width="44"
   xml:space="preserve"
   sodipodi:docname="tractor-icon.svg"
   inkscape:version="0.92.4 (5da689c313, 2019-01-14)"><metadata
     id="metadata4946"><rdf:RDF><cc:Work
         rdf:about=""><dc:format>image/svg+xml</dc:format><dc:type
           rdf:resource="http://purl.org/dc/dcmitype/StillImage" /><dc:title></dc:title></cc:Work></rdf:RDF></metadata><defs
     id="defs4944" /><sodipodi:namedview
     pagecolor="#ffffff"
     bordercolor="#666666"
     borderopacity="1"
     objecttolerance="10"
     gridtolerance="10"
     guidetolerance="10"
     inkscape:pageopacity="0"
     inkscape:pageshadow="2"
     inkscape:window-width="1920"
     inkscape:window-height="1015"
     id="namedview4942"
     showgrid="false"
     inkscape:zoom="12.625"
     inkscape:cx="4.0198019"
     inkscape:cy="17"
     inkscape:window-x="0"
     inkscape:window-y="0"
     inkscape:window-maximized="1"
     inkscape:current-layer="Layer_1"
     fit-margin-top="0"
     fit-margin-left="0"
     fit-margin-right="0"
     fit-margin-bottom="0" /><g
     id="g4921"
     style="fill:#000000;fill-opacity:1"
     transform="translate(-10,-13)"><path
       d="m 30.384,17 c 0.663,2.505 2.228,8.104 3.635,13.101 L 22.158416,26.341525 22,17 h 8.384 M 32,13 H 20 c -1.105,0 -2,0.895 -2,2 V 26.012258 L 39.188,33.687 c 0,0 -5,-17.688 -5.188,-18.688 C 34,13.895 33.105,13 32,13 Z"
       id="path4919"
       inkscape:connector-curvature="0"
       style="fill:#000000;fill-opacity:1"
       sodipodi:nodetypes="cccccssscccs" /></g><path
     d="m 42,26 c 0,2.209 -3.599019,0.04855 -5.675552,0.514851 L 20.804265,30 C 18.727732,30.466298 22.04922,21.708329 20.673267,19.980198 L 19.009901,17.891089 C 17.633948,16.162958 18.676021,15 20.804265,15 H 38.14623 C 40.274474,15 42,16.791 42,19 Z"
     id="path4923"
     inkscape:connector-curvature="0"
     style="fill:#000000;fill-opacity:1;stroke-width:0.98155105"
     sodipodi:nodetypes="sssssssss" /><path
     d="M 12,12 C 5.373,12 0,17.373 0,24 0,30.627 5.373,36 12,36 18.627,36 24,30.627 24,24 24,17.373 18.627,12 12,12 Z m 0,20 c -4.411,0 -8,-3.589 -8,-8 0,-4.411 3.589,-8 8,-8 4.411,0 8,3.589 8,8 0,4.411 -3.589,8 -8,8 z"
     id="path4933"
     inkscape:connector-curvature="0"
     style="fill:#000000;fill-opacity:1" /><path
     d="M 37.5,23 C 33.91,23 31,25.91 31,29.5 31,33.09 33.91,36 37.5,36 41.09,36 44,33.09 44,29.5 44,25.91 41.09,23 37.5,23 Z m 0,9 C 36.122,32 35,30.878 35,29.5 35,28.121 36.122,27 37.5,27 c 1.378,0 2.5,1.121 2.5,2.5 0,1.378 -1.122,2.5 -2.5,2.5 z"
     id="path4935"
     inkscape:connector-curvature="0"
     style="fill:#000000;fill-opacity:1" /><path
     d="m 26,2 c 0,1.105 -0.895,2 -2,2 H 10 C 8.895,4 8,3.105 8,2 V 2 C 8,0.895 8.895,0 10,0 h 14 c 1.105,0 2,0.895 2,2 z"
     id="path4939"
     inkscape:connector-curvature="0"
     style="fill:#000000;fill-opacity:1" /><rect
     style="fill:#000000;fill-opacity:1"
     id="rect23253"
     width="10.693069"
     height="3.0891089"
     x="21.920792"
     y="26.920792" /></svg>